<svg xmlns="http://www.w3.org/2000/svg" viewBox="0 0 700 700"><script/><g transform="matrix(.1 0 0 -.1 0 700)"><circle cx="3490" cy="3510" r="3482.8" fill="#0e2437"/><path d="M5846 5503l-395-999H4206l-115-609h1209l-395-993-985-3-326-1604-1944 131 1992 131-2190 131 2237 133-3094 132 3148 131-2553 133 2602 131-3017 131 3069 132-2668 131 2716 131-3658 133 3707 131-2745 131 2797 131-2190 131 2238 131-3319 132 3366 101-1984 161 2036 131-3580 131 3628 190-2371 82 2423 131-3064 131 3112 131-2691 131 2743 131-2188 133 1490 85c673 38 1981 52 2204 41z" fill="#00d07b"/></g></svg>
