<svg version="1" xmlns="http://www.w3.org/2000/svg" width="682.667" height="682.667" viewBox="0 0 512.000000 512.000000"><path d="M233 2c-49.3 4.8-95.3 23.1-135 53.9C87.1 64.3 64.3 87.1 55.9 98c-16 20.6-30.8 47-39.3 70.1C11.7 181.5 6.4 202 3.8 218c-3.1 19.5-3.1 56.5 0 76 4.5 27.4 11.5 49.5 23.7 74.5 12.6 26 27.1 46.2 48.5 67.5 21.3 21.4 41.5 35.9 67.5 48.5 25 12.2 47.1 19.2 74.5 23.7 19.5 3.1 56.5 3.1 76 0 27.4-4.5 49.5-11.5 74.5-23.7 26-12.6 46.2-27.1 67.5-48.5 21.4-21.3 35.9-41.5 48.5-67.5 8.9-18.1 13.3-29.9 18-47.6 6.3-24 7.8-37.1 7.8-64.9 0-27.8-1.5-40.9-7.8-64.9-8.8-33.3-24.5-64.8-46.4-93.1-8.4-10.9-31.2-33.7-42.1-42.1-20.6-16-47-30.8-70.1-39.3-13.4-4.9-34-10.2-49.4-12.6C279.8 1.7 247 .6 233 2zm195 108.2c0 .2-6.4 16.5-14.3 36.3l-14.3 36-45.7.3c-25.1.1-45.7.3-45.7.5 0 .1-1.8 9.7-4 21.2s-4 21.6-4 22.2c0 1 9.8 1.3 43.9 1.5l43.8.3-14.1 35.7-14.1 35.8h-72.2l-4.1 20.2c-2.3 11.2-7.7 37.6-12 58.8l-7.9 38.5-5.4-.3c-8.9-.4-126.3-8.2-127.9-8.5-.8-.1 29.2-2.2 66.8-4.7 37.5-2.4 68.2-4.7 68.2-5 0-.3-33.9-2.6-75.2-5-41.4-2.5-74.4-4.6-73.3-4.7 1.1-.2 33.1-2.1 71-4.3 67.6-3.9 82-4.9 81.3-5.5-.2-.2-46.1-2.3-102-4.6-56-2.4-101.8-4.6-101.8-4.9 0-.3 41.7-2.2 92.8-4.3 101.9-4.2 115.4-4.8 114.8-5.4-.2-.2-38.8-2.4-85.7-4.8-47-2.5-86.1-4.6-86.9-4.8-.8-.1 38.8-2.2 88-4.7 54.2-2.7 87.9-4.8 85.5-5.2-2.2-.4-49.7-2.7-105.5-5-55.8-2.4-99.7-4.4-97.5-4.5 2.2-.2 47.7-2.1 101-4.3 90.4-3.8 111.5-4.8 109-5.6-.5-.1-41.1-2.2-90.2-4.5-49.1-2.4-89-4.5-88.8-4.7.1-.2 41.1-2.3 91-4.7 49.9-2.5 90.9-4.6 91.1-4.8.6-.6-16.9-1.3-130.6-5.2-56.9-2-105.7-3.9-108.5-4.3-2.9-.4 46.3-2.5 119-5.1 68.2-2.4 124.1-4.4 124.3-4.6.7-.6-17.5-1.6-101.8-5.6-47-2.2-85.6-4.1-85.7-4.2-.1-.2 43.1-2.3 96-4.7 52.9-2.4 94.8-4.8 93.2-5.2-1.7-.4-35.2-2.5-74.5-4.8-39.3-2.2-72.4-4.2-73.5-4.3-1.1-.1 32.2-2.2 74-4.5 41.8-2.4 76.8-4.7 77.9-5.1 1-.4-49.3-2.7-111.7-5.1-62.5-2.4-113.5-4.5-113.4-4.6.1-.1 49.5-1.6 109.7-3.3 60.2-1.7 112.2-3.5 115.5-3.9 4.7-.5-9-1.9-61.7-6.2-37.2-3-67.5-5.6-67.3-5.8.2-.2 31-2.4 68.6-4.8 37.5-2.4 68.4-4.6 68.7-4.9.3-.3-.3-.5-1.4-.5-8-.1-242.7-9-243-9.2-.2-.2 55.5-3.3 123.6-6.8 68.2-3.6 123.6-6.7 123.2-7.1-.4-.3-32.4-1.6-71.2-2.8-38.8-1.3-73.4-2.6-77-3-4.5-.4 15.8-1.8 65-4.4 79.5-4.3 89.2-4.8 88.7-5.4-.2-.2-46.6-2.3-103.1-4.7-56.6-2.5-102.9-4.6-103.1-4.8-.2-.2 46.5-2.3 103.8-4.6 57.3-2.4 104.7-4.5 105.2-4.6 2.5-.8-16-1.9-96-5.6-47.3-2.2-86.9-4.1-88-4.3-1.1-.1 40.6-2.2 92.8-4.7 52.1-2.4 94.7-4.7 94.7-5 0-.3-33.5-2.6-74.5-5-41-2.5-74.2-4.6-73.8-4.7.4-.1 24.9-1.6 54.3-3.2 53.2-3 102.5-5 136-5.4 34.8-.5 70-.7 70-.5z"/></svg>